<svg width="68" height="34" viewBox="0 0 68 34" fill="none" xmlns="http://www.w3.org/2000/svg">
<path d="M36.36 8.7V25.19C36.353 25.2964 36.3075 25.3967 36.2321 25.4721C36.1567 25.5475 36.0564 25.593 35.95 25.6H31.85C31.7594 25.5971 31.6718 25.5669 31.5986 25.5134C31.5255 25.4599 31.4702 25.3855 31.44 25.3V9.73C31.4352 9.64933 31.4011 9.57322 31.3439 9.51608C31.2868 9.45895 31.2107 9.42476 31.13 9.42H30.62V8.42H36.05C36.0895 8.41403 36.1299 8.41691 36.1681 8.42843C36.2064 8.43995 36.2416 8.45982 36.2713 8.48661C36.3009 8.51339 36.3243 8.54643 36.3396 8.58333C36.355 8.62023 36.3619 8.66008 36.36 8.7ZM22.53 16.7V16.5C22.53 16.4 22.53 16.4 22.63 16.29L27.55 8.92C27.573 8.90124 27.5915 8.8776 27.6043 8.85079C27.617 8.82399 27.6236 8.79468 27.6236 8.765C27.6236 8.73532 27.617 8.70601 27.6043 8.6792C27.5915 8.6524 27.573 8.62876 27.55 8.61C27.45 8.51 27.34 8.41 27.24 8.41H22.73C22.5997 8.41271 22.473 8.4528 22.3648 8.52549C22.2567 8.59817 22.1717 8.7004 22.12 8.82L18.23 14.24C18.13 14.45 18.02 14.45 17.92 14.45C17.8669 14.4452 17.8173 14.4212 17.7805 14.3826C17.7437 14.344 17.7222 14.2933 17.72 14.24V8.7C17.7107 8.59536 17.6642 8.49751 17.589 8.42415C17.5138 8.35078 17.4148 8.30675 17.31 8.3H12.08C12.0535 8.3 12.028 8.31054 12.0093 8.32929C11.9905 8.34804 11.98 8.37348 11.98 8.4V9.22C11.98 9.24652 11.9905 9.27196 12.0093 9.29071C12.028 9.30946 12.0535 9.32 12.08 9.32H12.6C12.6797 9.32495 12.7546 9.3595 12.8101 9.41685C12.8656 9.4742 12.8977 9.55022 12.9 9.63V25.19C12.9 25.4 13.01 25.6 13.21 25.6H17.21C17.3172 25.5951 17.4186 25.5504 17.4945 25.4745C17.5704 25.3986 17.6151 25.2972 17.62 25.19V18.74C17.6248 18.6869 17.6487 18.6373 17.6874 18.6005C17.726 18.5637 17.7767 18.5422 17.83 18.54C17.8815 18.5445 17.9298 18.567 17.9664 18.6036C18.003 18.6402 18.0255 18.6885 18.03 18.74L22.74 25.3C22.8072 25.4085 22.8977 25.5007 23.0049 25.5699C23.1122 25.6391 23.2334 25.6835 23.36 25.7H28.07C28.17 25.7 28.28 25.6 28.38 25.5C28.428 25.4425 28.4543 25.3699 28.4543 25.295C28.4543 25.2201 28.428 25.1475 28.38 25.09L22.53 16.7ZM50.69 8.6C50.59 8.4 50.39 8.4 50.18 8.4H43.83C43.8035 8.4 43.778 8.41053 43.7593 8.42929C43.7405 8.44804 43.73 8.47348 43.73 8.5V9.32C43.73 9.34652 43.7405 9.37196 43.7593 9.39071C43.778 9.40946 43.8035 9.42 43.83 9.42H44.34C44.3823 9.41309 44.4256 9.41634 44.4663 9.42948C44.5071 9.44262 44.5442 9.46526 44.5744 9.49555C44.6047 9.52583 44.6274 9.56289 44.6405 9.60366C44.6537 9.64442 44.6569 9.68773 44.65 9.73V9.93L39.53 25.3C39.5235 25.3543 39.529 25.4093 39.5463 25.4612C39.5636 25.5131 39.5922 25.5605 39.63 25.6C39.6714 25.638 39.7205 25.6667 39.7741 25.6839C39.8276 25.7012 39.8842 25.7067 39.94 25.7H43.94C44.0531 25.6817 44.1598 25.6356 44.2506 25.5658C44.3414 25.4959 44.4133 25.4046 44.46 25.3L47.84 14.54C47.84 14.54 47.84 14.44 48.04 14.44C48.24 14.44 48.24 14.54 48.24 14.54L51.61 25.3C51.7334 25.488 51.9166 25.6289 52.13 25.7H56.13C56.1858 25.7067 56.2424 25.7012 56.2959 25.6839C56.3494 25.6667 56.3986 25.638 56.44 25.6C56.4778 25.5605 56.5064 25.5131 56.5237 25.4612C56.541 25.4093 56.5465 25.3543 56.54 25.3L50.69 8.6ZM67.8 17C67.8 26.32 52.64 34 34 34C15.36 34 0.199997 26.42 0.199997 17C0.199997 7.58 15.36 0 34 0C52.64 0 67.8 7.68 67.8 17ZM63.8 17C63.8 8.81 50.49 2.15 34 2.15C17.51 2.15 4.2 8.81 4.2 17C4.2 25.19 17.51 31.85 34 31.85C50.49 31.85 63.8 25.19 63.8 17Z" fill="#BB162C"/>
</svg>
