<?xml version="1.0" encoding="iso-8859-1"?>
<!-- Generator: Adobe Illustrator 19.0.0, SVG Export Plug-In . SVG Version: 6.00 Build 0)  -->
<svg version="1.1" id="Layer_1" xmlns="http://www.w3.org/2000/svg" xmlns:xlink="http://www.w3.org/1999/xlink" x="0px" y="0px"
	 viewBox="0 0 512 512" style="enable-background:new 0 0 512 512;" xml:space="preserve">
<g>
	<g>
		<g>
			<path d="M502,45.782H89.704c-5.523,0-10,4.477-10,10v231.26H10c-5.523,0-10,4.477-10,10v159.177c0,5.523,4.477,10,10,10h206.148
				c5.523,0,10-4.477,10-10v-72.083H502c5.522,0,10-4.477,10-10V55.782C512,50.259,507.522,45.782,502,45.782z M206.148,446.22H20
				V307.043h59.704v67.095c0,5.523,4.477,10,10,10h116.444V446.22z M492,364.137H226.148h-20H99.704v-57.095v-20V65.782H492V364.137
				z"/>
			<path d="M287.256,280.295c2.559,0,5.118-0.976,7.072-2.929l21.528-21.528c3.905-3.906,3.905-10.238,0-14.143
				c-3.907-3.905-10.237-3.905-14.143,0l-21.528,21.528c-3.905,3.906-3.905,10.238,0,14.143
				C282.138,279.319,284.696,280.295,287.256,280.295z"/>
			<path d="M347.926,219.626c2.559,0,5.118-0.976,7.071-2.929l37.75-37.75l15.739,15.739c10.308,10.308,27.908,5.591,31.68-8.49
				l16.692-62.312c3.772-14.08-9.111-26.963-23.19-23.191l-62.312,16.692c-14.081,3.772-18.797,21.373-8.49,31.68l15.739,15.739
				l-37.75,37.75c-3.905,3.905-3.905,10.237,0,14.143C342.808,218.649,345.367,219.626,347.926,219.626z"/>
			<path d="M137.864,203.967c5.523,0,10-4.477,10-10v-86.112c0-5.523-4.477-10-10-10s-10,4.477-10,10v86.112
				C127.864,199.49,132.341,203.967,137.864,203.967z"/>
		</g>
	</g>
</g>
<g>
</g>
<g>
</g>
<g>
</g>
<g>
</g>
<g>
</g>
<g>
</g>
<g>
</g>
<g>
</g>
<g>
</g>
<g>
</g>
<g>
</g>
<g>
</g>
<g>
</g>
<g>
</g>
<g>
</g>
</svg>
